<svg width="1107" height="591" viewBox="0 0 1107 591" fill="none" xmlns="http://www.w3.org/2000/svg">
<rect width="1107" height="591" fill="#F1F1F1"/>
<circle cx="859.5" cy="104.5" r="43.5" fill="black"/>
<circle cx="728.5" cy="165.5" r="43.5" fill="black"/>
<circle cx="512.5" cy="151.5" r="43.5" fill="black"/>
<circle cx="137.5" cy="389.5" r="43.5" fill="black"/>
<circle cx="626.5" cy="356.5" r="43.5" fill="black"/>
<circle cx="973.5" cy="310.5" r="43.5" fill="black"/>
<circle cx="263.5" cy="456.5" r="43.5" fill="black"/>
<line x1="528.096" y1="135.877" x2="556.096" y2="100.877" stroke="black" stroke-width="10"/>
<line x1="818" y1="103" x2="552" y2="103" stroke="black" stroke-width="10"/>
<line x1="641.096" y1="340.877" x2="669.096" y2="305.877" stroke="black" stroke-width="10"/>
<line x1="931" y1="308" x2="665" y2="308" stroke="black" stroke-width="10"/>
<line x1="173" y1="388" x2="376" y2="388" stroke="black" stroke-width="10"/>
<line x1="372.457" y1="389.472" x2="594.457" y2="166.472" stroke="black" stroke-width="10"/>
<line x1="688" y1="168" x2="591" y2="168" stroke="black" stroke-width="10"/>
<line x1="405.457" y1="459.472" x2="627.457" y2="236.472" stroke="black" stroke-width="10"/>
<line x1="301" y1="458" x2="409" y2="458" stroke="black" stroke-width="10"/>
<line x1="623.98" y1="238" x2="876.98" y2="237" stroke="black" stroke-width="10"/>
</svg>
