<svg width="1920" height="1080" viewBox="0 0 1920 1080" fill="none" xmlns="http://www.w3.org/2000/svg">
<rect width="1920" height="1080" fill="#F1F1F1"/>
<line y1="10" x2="1920" y2="10" stroke="black" stroke-width="20"/>
<line y1="1070" x2="1920" y2="1070" stroke="black" stroke-width="20"/>
<line x1="1910" x2="1910" y2="1080" stroke="black" stroke-width="20"/>
<line x1="10" x2="10" y2="1080" stroke="black" stroke-width="20"/>
<line x1="7.8533" y1="11.2567" x2="1904.85" y2="1064.26" stroke="black" stroke-width="20"/>
<line x1="1910.84" y1="14.7483" x2="12.8443" y2="1065.75" stroke="black" stroke-width="20"/>
<rect x="577" y="382" width="766" height="330" fill="#F1F1F1"/>
<path d="M374.211 621H350.773V477.055H392.18C398.299 477.055 404.354 478.031 410.344 479.984C416.333 481.938 421.672 484.867 426.359 488.773C431.177 492.68 435.018 497.432 437.883 503.031C440.878 508.5 442.375 514.685 442.375 521.586C442.375 528.878 441.138 535.518 438.664 541.508C436.19 547.367 432.74 552.315 428.312 556.352C423.885 560.388 418.547 563.513 412.297 565.727C406.047 567.94 399.146 569.047 391.594 569.047H374.211V621ZM374.211 494.828V551.859H395.695C398.56 551.859 401.359 551.404 404.094 550.492C406.958 549.451 409.562 547.823 411.906 545.609C414.25 543.396 416.138 540.336 417.57 536.43C419.003 532.393 419.719 527.445 419.719 521.586C419.719 519.242 419.393 516.573 418.742 513.578C418.091 510.453 416.724 507.523 414.641 504.789C412.688 501.924 409.888 499.581 406.242 497.758C402.596 495.805 397.779 494.828 391.789 494.828H374.211ZM491.398 587.406C491.398 591.833 491.984 595.349 493.156 597.953C494.328 600.427 495.956 602.315 498.039 603.617C500.122 604.789 502.466 605.57 505.07 605.961C507.805 606.352 510.734 606.547 513.859 606.547V621C512.167 621.26 510.409 621.456 508.586 621.586C507.154 621.716 505.461 621.781 503.508 621.781C501.555 621.911 499.602 621.977 497.648 621.977C495.695 621.977 493.742 621.911 491.789 621.781C489.836 621.651 488.078 621.456 486.516 621.195C482.089 620.284 478.638 618.331 476.164 615.336C473.69 612.341 471.802 609.021 470.5 605.375C469.198 601.599 468.352 597.953 467.961 594.438C467.701 590.922 467.57 588.188 467.57 586.234V583.891V469.242H491.398V587.406ZM618.742 586.82V588.383C618.742 589.424 618.807 590.987 618.938 593.07C619.068 595.023 619.328 597.042 619.719 599.125C620.109 601.208 620.695 603.096 621.477 604.789C622.388 606.482 623.56 607.589 624.992 608.109L618.742 621.195C617.049 621.195 615.227 620.805 613.273 620.023C611.451 619.242 609.628 618.135 607.805 616.703C606.112 615.271 604.615 613.708 603.312 612.016C602.141 610.193 601.229 608.24 600.578 606.156C599.667 608.37 598.039 610.453 595.695 612.406C593.482 614.229 590.943 615.922 588.078 617.484C585.214 618.917 582.089 620.023 578.703 620.805C575.448 621.586 572.388 621.977 569.523 621.977C565.096 621.977 560.799 621.391 556.633 620.219C552.596 619.047 549.016 617.159 545.891 614.555C542.766 611.951 540.292 608.5 538.469 604.203C536.776 599.906 535.93 594.633 535.93 588.383C535.93 582.393 537.167 577.25 539.641 572.953C542.245 568.526 545.5 564.945 549.406 562.211C553.443 559.346 558 557.263 563.078 555.961C568.156 554.529 573.299 553.812 578.508 553.812H595.109C595.109 547.432 594.784 542.354 594.133 538.578C593.482 534.802 592.375 532.068 590.812 530.375C589.25 528.552 587.297 527.445 584.953 527.055C582.74 526.534 580.07 526.273 576.945 526.273C574.081 526.273 571.346 526.664 568.742 527.445C566.268 528.096 563.924 528.943 561.711 529.984C559.628 530.896 557.74 531.938 556.047 533.109C554.484 534.281 553.312 535.193 552.531 535.844L543.742 522.367C545.044 520.935 546.997 519.503 549.602 518.07C552.206 516.508 555.201 515.141 558.586 513.969C561.971 512.797 565.617 511.885 569.523 511.234C573.56 510.453 577.727 510.062 582.023 510.062C585.93 510.062 589.706 510.453 593.352 511.234C597.128 512.016 600.513 513.318 603.508 515.141C606.633 516.964 609.302 519.438 611.516 522.562C613.859 525.557 615.487 529.333 616.398 533.891C617.31 538.448 617.896 543.07 618.156 547.758C618.547 552.315 618.742 556.872 618.742 561.43V586.82ZM595.305 567.68H582.805C580.201 567.68 577.466 567.94 574.602 568.461C571.737 568.982 569.068 569.958 566.594 571.391C564.12 572.823 562.036 574.906 560.344 577.641C558.781 580.245 558 583.63 558 587.797C558 594.307 559.432 598.995 562.297 601.859C565.292 604.724 569.589 606.156 575.188 606.156C579.094 606.156 582.805 605.115 586.32 603.031C589.966 600.948 592.961 598.148 595.305 594.633V567.68ZM737.688 605.57C733.26 611.169 728.443 615.336 723.234 618.07C718.026 620.674 711.385 621.977 703.312 621.977C695.63 621.977 688.664 620.544 682.414 617.68C676.164 614.685 670.826 610.714 666.398 605.766C661.971 600.688 658.586 594.763 656.242 587.992C654.029 581.221 652.922 573.865 652.922 565.922C652.922 558.109 654.159 550.818 656.633 544.047C659.107 537.276 662.557 531.417 666.984 526.469C671.411 521.391 676.75 517.419 683 514.555C689.25 511.69 696.216 510.258 703.898 510.258C711.971 510.258 718.872 511.625 724.602 514.359C730.331 516.964 735.409 521.065 739.836 526.664L729.289 539.359C727.076 536.755 724.016 534.411 720.109 532.328C716.203 530.115 710.865 529.008 704.094 529.008C700.188 529.008 696.607 529.919 693.352 531.742C690.096 533.565 687.297 536.104 684.953 539.359C682.74 542.615 680.982 546.456 679.68 550.883C678.508 555.31 677.922 560.128 677.922 565.336C677.922 570.544 678.443 575.427 679.484 579.984C680.656 584.411 682.349 588.318 684.562 591.703C686.776 595.089 689.38 597.758 692.375 599.711C695.5 601.664 699.081 602.641 703.117 602.641C708.977 602.641 713.859 601.729 717.766 599.906C721.802 597.953 725.513 595.609 728.898 592.875L737.688 605.57ZM816.398 509.672C825.253 509.672 833.065 511.495 839.836 515.141C846.607 518.656 852.141 523.409 856.438 529.398C860.865 535.258 863.99 542.094 865.812 549.906C867.766 557.589 868.156 565.596 866.984 573.93H790.422C790.422 578.096 791.203 581.938 792.766 585.453C794.328 588.969 796.411 592.029 799.016 594.633C801.75 597.107 804.94 599.06 808.586 600.492C812.362 601.924 816.398 602.641 820.695 602.641C822.128 602.641 823.885 602.51 825.969 602.25C828.182 601.859 830.461 601.273 832.805 600.492C835.279 599.581 837.688 598.474 840.031 597.172C842.505 595.87 844.654 594.307 846.477 592.484L855.07 605.57C850.773 610.909 845.76 614.945 840.031 617.68C834.302 620.414 827.01 621.781 818.156 621.781C810.995 621.781 804.289 620.349 798.039 617.484C791.789 614.49 786.451 610.453 782.023 605.375C777.596 600.297 774.081 594.372 771.477 587.602C768.872 580.831 767.57 573.539 767.57 565.727C767.57 558.044 768.872 550.818 771.477 544.047C774.081 537.146 777.531 531.156 781.828 526.078C786.255 521 791.464 517.029 797.453 514.164C803.443 511.169 809.758 509.672 816.398 509.672ZM845.109 556.742C845.109 553.227 844.458 549.776 843.156 546.391C841.854 543.005 840.031 539.945 837.688 537.211C835.474 534.477 832.74 532.328 829.484 530.766C826.229 529.073 822.714 528.161 818.938 528.031C814.901 528.031 811.19 528.812 807.805 530.375C804.419 531.938 801.49 534.021 799.016 536.625C796.542 539.229 794.589 542.354 793.156 546C791.854 549.516 791.203 553.096 791.203 556.742H845.109ZM1064.64 477.055V621H1041.2V556.156H978.898V621H955.07V477.055H978.898V540.141H1041.2V477.055H1064.64ZM1148.82 510.258C1156.37 510.258 1163.21 511.755 1169.33 514.75C1175.45 517.615 1180.66 521.586 1184.95 526.664C1189.25 531.742 1192.57 537.667 1194.91 544.438C1197.26 551.208 1198.43 558.5 1198.43 566.312C1198.43 574.125 1197.19 581.482 1194.72 588.383C1192.24 595.154 1188.73 601.078 1184.17 606.156C1179.74 611.104 1174.41 615.01 1168.16 617.875C1162.04 620.609 1155.2 621.977 1147.65 621.977C1139.97 621.977 1132.93 620.544 1126.55 617.68C1120.3 614.815 1114.97 610.844 1110.54 605.766C1106.24 600.688 1102.92 594.763 1100.58 587.992C1098.23 581.221 1097.06 573.865 1097.06 565.922C1097.06 557.979 1098.3 550.557 1100.77 543.656C1103.38 536.755 1106.89 530.896 1111.32 526.078C1115.88 521.13 1121.35 517.289 1127.73 514.555C1134.11 511.69 1141.14 510.258 1148.82 510.258ZM1147.26 603.422C1151.16 603.422 1154.68 602.51 1157.8 600.688C1161.06 598.734 1163.79 596.13 1166.01 592.875C1168.35 589.49 1170.17 585.518 1171.48 580.961C1172.91 576.404 1173.62 571.521 1173.62 566.312C1173.62 561.104 1172.97 556.221 1171.67 551.664C1170.5 547.107 1168.81 543.135 1166.59 539.75C1164.51 536.234 1161.91 533.435 1158.78 531.352C1155.66 529.268 1152.14 528.227 1148.23 528.227C1144.33 528.227 1140.75 529.203 1137.49 531.156C1134.24 533.109 1131.44 535.779 1129.09 539.164C1126.88 542.419 1125.12 546.326 1123.82 550.883C1122.65 555.31 1122.06 560.128 1122.06 565.336C1122.06 570.544 1122.58 575.492 1123.62 580.18C1124.8 584.737 1126.49 588.708 1128.7 592.094C1130.92 595.479 1133.52 598.214 1136.52 600.297C1139.64 602.38 1143.22 603.422 1147.26 603.422ZM1252.53 587.406C1252.53 591.833 1253.12 595.349 1254.29 597.953C1255.46 600.427 1257.09 602.315 1259.17 603.617C1261.26 604.789 1263.6 605.57 1266.2 605.961C1268.94 606.352 1271.87 606.547 1274.99 606.547V621C1273.3 621.26 1271.54 621.456 1269.72 621.586C1268.29 621.716 1266.59 621.781 1264.64 621.781C1262.69 621.911 1260.73 621.977 1258.78 621.977C1256.83 621.977 1254.88 621.911 1252.92 621.781C1250.97 621.651 1249.21 621.456 1247.65 621.195C1243.22 620.284 1239.77 618.331 1237.3 615.336C1234.82 612.341 1232.93 609.021 1231.63 605.375C1230.33 601.599 1229.48 597.953 1229.09 594.438C1228.83 590.922 1228.7 588.188 1228.7 586.234V583.891V469.242H1252.53V587.406ZM1307.41 609.867C1302.47 604.268 1298.82 597.367 1296.48 589.164C1294.13 580.961 1292.96 572.693 1292.96 564.359C1292.96 554.203 1294.33 545.674 1297.06 538.773C1299.93 531.872 1303.57 526.273 1308 521.977C1312.43 517.68 1317.31 514.62 1322.65 512.797C1328.12 510.844 1333.46 509.867 1338.66 509.867C1345.04 509.867 1350.84 510.974 1356.05 513.188C1361.39 515.401 1365.36 518.331 1367.96 521.977V469.242H1391.79V621H1369.33C1369.07 618.786 1368.81 616.573 1368.55 614.359C1368.42 612.016 1368.22 609.867 1367.96 607.914C1367.57 609.607 1366.4 611.299 1364.45 612.992C1362.62 614.685 1360.21 616.247 1357.22 617.68C1354.35 618.982 1351.1 620.023 1347.45 620.805C1343.81 621.586 1340.03 621.977 1336.12 621.977C1330.92 621.977 1325.77 621.065 1320.7 619.242C1315.75 617.419 1311.32 614.294 1307.41 609.867ZM1317.96 566.117C1317.96 571.326 1318.61 576.208 1319.91 580.766C1321.22 585.193 1322.97 589.099 1325.19 592.484C1327.4 595.87 1330.07 598.539 1333.2 600.492C1336.45 602.445 1339.97 603.422 1343.74 603.422C1347.78 603.422 1351.36 602.445 1354.48 600.492C1357.74 598.409 1360.47 595.674 1362.69 592.289C1364.9 588.904 1366.59 584.932 1367.77 580.375C1368.94 575.818 1369.52 570.935 1369.52 565.727C1369.52 560.518 1368.87 555.635 1367.57 551.078C1366.4 546.521 1364.64 542.549 1362.3 539.164C1360.08 535.779 1357.35 533.109 1354.09 531.156C1350.97 529.073 1347.39 528.031 1343.35 528.031C1339.32 528.031 1335.73 529.073 1332.61 531.156C1329.48 533.109 1326.82 535.844 1324.6 539.359C1322.52 542.875 1320.89 546.911 1319.72 551.469C1318.55 556.026 1317.96 560.909 1317.96 566.117ZM1471.28 509.672C1480.14 509.672 1487.95 511.495 1494.72 515.141C1501.49 518.656 1507.02 523.409 1511.32 529.398C1515.75 535.258 1518.87 542.094 1520.7 549.906C1522.65 557.589 1523.04 565.596 1521.87 573.93H1445.3C1445.3 578.096 1446.09 581.938 1447.65 585.453C1449.21 588.969 1451.29 592.029 1453.9 594.633C1456.63 597.107 1459.82 599.06 1463.47 600.492C1467.24 601.924 1471.28 602.641 1475.58 602.641C1477.01 602.641 1478.77 602.51 1480.85 602.25C1483.07 601.859 1485.34 601.273 1487.69 600.492C1490.16 599.581 1492.57 598.474 1494.91 597.172C1497.39 595.87 1499.54 594.307 1501.36 592.484L1509.95 605.57C1505.66 610.909 1500.64 614.945 1494.91 617.68C1489.18 620.414 1481.89 621.781 1473.04 621.781C1465.88 621.781 1459.17 620.349 1452.92 617.484C1446.67 614.49 1441.33 610.453 1436.91 605.375C1432.48 600.297 1428.96 594.372 1426.36 587.602C1423.76 580.831 1422.45 573.539 1422.45 565.727C1422.45 558.044 1423.76 550.818 1426.36 544.047C1428.96 537.146 1432.41 531.156 1436.71 526.078C1441.14 521 1446.35 517.029 1452.34 514.164C1458.33 511.169 1464.64 509.672 1471.28 509.672ZM1499.99 556.742C1499.99 553.227 1499.34 549.776 1498.04 546.391C1496.74 543.005 1494.91 539.945 1492.57 537.211C1490.36 534.477 1487.62 532.328 1484.37 530.766C1481.11 529.073 1477.6 528.161 1473.82 528.031C1469.78 528.031 1466.07 528.812 1462.69 530.375C1459.3 531.938 1456.37 534.021 1453.9 536.625C1451.42 539.229 1449.47 542.354 1448.04 546C1446.74 549.516 1446.09 553.096 1446.09 556.742H1499.99ZM1616.79 534.672C1613.14 533.63 1608.72 533.044 1603.51 532.914C1598.82 532.914 1594.13 533.5 1589.45 534.672C1584.89 535.714 1581.24 537.536 1578.51 540.141V581.938V582.328V621H1554.88V510.844H1575.97L1578.51 522.172C1580.46 520.219 1582.48 518.461 1584.56 516.898C1586.78 515.336 1589.32 514.099 1592.18 513.188C1595.04 512.146 1598.43 511.365 1602.34 510.844C1606.24 510.323 1611.06 510.062 1616.79 510.062V534.672Z" fill="black"/>
</svg>
