<svg width="923" height="439" viewBox="0 0 923 439" fill="none" xmlns="http://www.w3.org/2000/svg">
<circle cx="765.5" cy="43.5" r="43.5" fill="black"/>
<circle cx="634.5" cy="104.5" r="43.5" fill="black"/>
<circle cx="418.5" cy="90.5" r="43.5" fill="black"/>
<circle cx="43.5" cy="328.5" r="43.5" fill="black"/>
<circle cx="532.5" cy="295.5" r="43.5" fill="black"/>
<circle cx="879.5" cy="249.5" r="43.5" fill="black"/>
<circle cx="169.5" cy="395.5" r="43.5" fill="black"/>
<line x1="434.096" y1="74.8765" x2="462.096" y2="39.8765" stroke="black" stroke-width="10"/>
<line x1="724" y1="42" x2="458" y2="42" stroke="black" stroke-width="10"/>
<line x1="547.096" y1="279.877" x2="575.096" y2="244.877" stroke="black" stroke-width="10"/>
<line x1="837" y1="247" x2="571" y2="247" stroke="black" stroke-width="10"/>
<line x1="79" y1="327" x2="282" y2="327" stroke="black" stroke-width="10"/>
<line x1="278.457" y1="328.472" x2="500.457" y2="105.472" stroke="black" stroke-width="10"/>
<line x1="594" y1="107" x2="497" y2="107" stroke="black" stroke-width="10"/>
<line x1="311.457" y1="398.472" x2="533.457" y2="175.472" stroke="black" stroke-width="10"/>
<line x1="207" y1="397" x2="315" y2="397" stroke="black" stroke-width="10"/>
<line x1="529.98" y1="177" x2="782.98" y2="176" stroke="black" stroke-width="10"/>
</svg>
